<svg width="17" height="16" fill="none" xmlns="http://www.w3.org/2000/svg">
    <path
        d="M7.37.02a8.18 8.18 0 0 0-4.24 1.74c-.403.325-1.063 1.004-1.354 1.392A8.171 8.171 0 0 0 .218 6.885 9.61 9.61 0 0 0 .17 8.684c.131 1.355.563 2.606 1.267 3.673a8.012 8.012 0 0 0 5.604 3.573c.46.07 1.339.091 1.799.047 1.355-.131 2.606-.563 3.673-1.267a8.012 8.012 0 0 0 3.573-5.604c.07-.46.091-1.339.047-1.799-.16-1.64-.744-3.091-1.745-4.333-.326-.404-1.005-1.064-1.393-1.355A8.196 8.196 0 0 0 9.263.06C8.885.004 7.74-.021 7.37.02Zm2.845 7.347a761.82 761.82 0 0 1 1.974 3.463c0 .007-1.78.013-3.958.013s-3.958-.006-3.958-.016c0-.025 3.952-6.933 3.961-6.92.003.002.898 1.56 1.98 3.46Z"
        fill="#444950" />
</svg>