<svg width="58" height="39" fill="none" xmlns="http://www.w3.org/2000/svg">
    <path
        d="M6.62 25.548c0 2.18.476 3.855 1.1 4.867.817 1.327 2.036 1.89 3.278 1.89 1.603 0 3.069-.4 5.894-4.321 2.264-3.144 4.93-7.556 6.725-10.322l3.039-4.686c2.11-3.255 4.554-6.873 7.356-9.325C36.3 1.649 38.766.537 41.249.537c4.169 0 8.14 2.425 11.178 6.972 3.326 4.98 4.94 11.253 4.94 17.726 0 3.849-.755 6.677-2.041 8.91-1.242 2.161-3.664 4.32-7.738 4.32v-6.161c3.488 0 4.359-3.217 4.359-6.899 0-5.246-1.22-11.068-3.904-15.228-1.905-2.951-4.374-4.754-7.09-4.754-2.939 0-5.303 2.224-7.96 6.19-1.413 2.106-2.863 4.674-4.491 7.571l-1.793 3.187c-3.6 6.41-4.513 7.868-6.313 10.276-3.156 4.218-5.85 5.817-9.398 5.817-4.208 0-6.869-1.83-8.517-4.585-1.345-2.246-2.006-5.193-2.006-8.55l6.145.22Z"
        fill="#0081FB" />
    <path
        d="M5.32 7.943C8.137 3.583 12.203.536 16.866.536c2.701 0 5.386.802 8.19 3.1 3.066 2.511 6.334 6.649 10.412 13.466l1.462 2.445c3.53 5.902 5.538 8.938 6.713 10.37 1.511 1.839 2.57 2.387 3.945 2.387 3.488 0 4.358-3.217 4.358-6.899l5.422-.17c0 3.848-.756 6.676-2.042 8.91-1.243 2.16-3.664 4.319-7.738 4.319-2.532 0-4.776-.553-7.257-2.902-1.907-1.803-4.137-5.006-5.852-7.885l-5.103-8.554c-2.56-4.294-4.91-7.495-6.268-8.944-1.462-1.56-3.341-3.442-6.34-3.442-2.428 0-4.49 1.71-6.215 4.325L5.32 7.942Z"
        fill="url(#a)" />
    <path
        d="M16.767 6.737c-2.427 0-4.489 1.71-6.214 4.325-2.44 3.696-3.932 9.2-3.932 14.486 0 2.18.477 3.854 1.1 4.867l-5.24 3.463C1.136 31.632.475 28.685.475 25.328c0-6.106 1.67-12.47 4.845-17.385C8.137 3.583 12.203.536 16.866.536l-.099 6.201Z"
        fill="url(#b)" />
    <defs>
        <linearGradient id="a" x1="12.808" y1="18.517" x2="51.982" y2="20.488" gradientUnits="userSpaceOnUse">
            <stop stop-color="#0064E1" />
            <stop offset=".4" stop-color="#0064E1" />
            <stop offset=".83" stop-color="#0073EE" />
            <stop offset="1" stop-color="#0082FB" />
        </linearGradient>
        <linearGradient id="b" x1="8.671" y1="28.137" x2="8.671" y2="13.642" gradientUnits="userSpaceOnUse">
            <stop stop-color="#0082FB" />
            <stop offset="1" stop-color="#0064E0" />
        </linearGradient>
    </defs>
</svg>