<svg width="52" height="51" fill="none" xmlns="http://www.w3.org/2000/svg">
    <path
        d="M48.178 20.909a12.449 12.449 0 0 0-1.101-10.348 12.856 12.856 0 0 0-5.944-5.291 13.08 13.08 0 0 0-7.963-.82A12.974 12.974 0 0 0 27.551.844 13.127 13.127 0 0 0 20.857.49a13.022 13.022 0 0 0-5.977 2.995 12.766 12.766 0 0 0-3.66 5.54 12.873 12.873 0 0 0-4.939 2.147 12.67 12.67 0 0 0-3.6 3.965 12.598 12.598 0 0 0-1.682 7.732 12.66 12.66 0 0 0 3.268 7.221 12.439 12.439 0 0 0 1.091 10.348 12.866 12.866 0 0 0 5.949 5.292 13.09 13.09 0 0 0 7.968.819 12.774 12.774 0 0 0 4.352 3.143c1.66.73 3.46 1.104 5.279 1.093a13.056 13.056 0 0 0 7.63-2.447 12.77 12.77 0 0 0 4.7-6.415 12.883 12.883 0 0 0 4.937-2.146 12.681 12.681 0 0 0 3.602-3.965 12.617 12.617 0 0 0 1.653-7.707 12.68 12.68 0 0 0-3.25-7.196ZM28.906 47.476a9.64 9.64 0 0 1-6.145-2.194l.303-.169 10.208-5.812c.254-.147.465-.356.612-.608.147-.252.225-.537.227-.827V23.67l4.315 2.462a.152.152 0 0 1 .08.11v11.763a9.426 9.426 0 0 1-2.817 6.691 9.689 9.689 0 0 1-6.783 2.78ZM8.269 38.783a9.312 9.312 0 0 1-1.142-6.35l.303.18 10.217 5.811a1.665 1.665 0 0 0 1.668 0l12.481-7.098v4.915a.166.166 0 0 1-.07.13l-10.34 5.881a9.727 9.727 0 0 1-7.286.942 9.595 9.595 0 0 1-5.831-4.411ZM5.58 16.85a9.55 9.55 0 0 1 5.053-4.157v11.963c-.004.289.07.574.216.825.146.25.358.458.612.6l12.42 7.069-4.314 2.462a.164.164 0 0 1-.152 0L9.098 29.74a9.509 9.509 0 0 1-4.468-5.753 9.378 9.378 0 0 1 .95-7.186v.05Zm35.452 8.125-12.46-7.138 4.304-2.452a.164.164 0 0 1 .152 0l10.318 5.881a9.53 9.53 0 0 1 3.709 3.812 9.363 9.363 0 0 1-.856 10.112 9.592 9.592 0 0 1-4.298 3.153V26.38a1.648 1.648 0 0 0-.246-.816 1.677 1.677 0 0 0-.623-.589Zm4.295-6.37-.303-.18-10.197-5.861a1.676 1.676 0 0 0-1.678 0l-12.47 7.098v-4.915a.138.138 0 0 1 .06-.13L31.06 8.747a9.717 9.717 0 0 1 10.296.439 9.507 9.507 0 0 1 3.37 4.12 9.36 9.36 0 0 1 .603 5.26v.04Zm-27.004 8.712-4.315-2.452a.172.172 0 0 1-.08-.12V13.014a9.385 9.385 0 0 1 1.504-5.08 9.571 9.571 0 0 1 4.03-3.493 9.729 9.729 0 0 1 5.302-.817c1.81.23 3.516.962 4.919 2.113l-.303.17-10.207 5.811a1.687 1.687 0 0 0-.613.608 1.657 1.657 0 0 0-.226.828l-.01 14.165Zm2.345-4.984 5.558-3.16 5.57 3.16v6.32l-5.55 3.16-5.568-3.16-.01-6.32Z"
        fill="#fff" />
</svg>