<svg width="20" height="18" fill="none" xmlns="http://www.w3.org/2000/svg">
    <path fill-rule="evenodd" clip-rule="evenodd"
        d="M10.003 0C4.938 0 .843 4.125.843 9.228a9.22 9.22 0 0 0 6.263 8.755c.455.091.622-.2.622-.443 0-.214-.015-.948-.015-1.712-2.548.55-3.079-1.1-3.079-1.1-.41-1.07-1.016-1.344-1.016-1.344-.834-.565.06-.565.06-.565.926.06 1.412.947 1.412.947.818 1.405 2.138 1.008 2.669.764.075-.596.318-1.009.576-1.238-2.032-.214-4.17-1.008-4.17-4.553 0-1.008.363-1.833.94-2.475-.091-.229-.41-1.176.09-2.444 0 0 .774-.245 2.518.947a8.807 8.807 0 0 1 2.29-.306 8.81 8.81 0 0 1 2.29.306c1.744-1.192 2.518-.947 2.518-.947.5 1.268.181 2.215.09 2.444.592.642.94 1.467.94 2.475 0 3.545-2.137 4.324-4.185 4.553.334.29.622.84.622 1.711 0 1.238-.015 2.231-.015 2.536 0 .245.167.535.622.444a9.221 9.221 0 0 0 6.263-8.755C19.163 4.125 15.053 0 10.003 0Z"
        fill="#444950" />
</svg>