<svg width="27" height="32" viewBox="0 0 27 32" fill="none" xmlns="http://www.w3.org/2000/svg">
    <path
        d="M11.4888 30.1341C10.8667 30.7278 10.127 31.1983 9.3125 31.5187C8.49795 31.8389 7.6247 32.0026 6.74321 32.0001C5.41015 32.0001 4.107 31.6245 2.99842 30.9208C1.88982 30.217 1.02553 29.2167 0.514721 28.0463C0.00391146 26.8758 -0.130495 25.5878 0.128481 24.3448C0.387458 23.1017 1.0282 21.9596 1.96975 21.0625L3.96073 22.955C3.41636 23.4789 3.047 24.144 2.89909 24.8668C2.75116 25.5896 2.83126 26.3378 3.12933 27.0175C3.4274 27.697 3.93012 28.2778 4.57435 28.6867C5.21858 29.0956 5.97556 29.3142 6.75018 29.3154C7.26193 29.3171 7.76893 29.222 8.24178 29.0361C8.71462 28.85 9.14392 28.5766 9.50478 28.2317L11.4888 30.1341Z"
        fill="#6C707A" />
    <path
        d="M14.1903 0.0222869C12.4919 -0.0772205 10.7902 0.157215 9.19134 0.710952C7.59252 1.26469 6.13098 2.12583 4.89799 3.2406C3.66657 4.35059 2.68516 5.68676 2.01326 7.16807C1.34137 8.64939 0.992989 10.245 0.989258 11.8581C0.989258 12.0968 0.989258 12.3321 1.01366 12.5608C1.21628 15.2748 2.46237 17.8231 4.51444 19.7199L11.0418 25.9379L13.8312 28.5894L15.4735 30.1505C16.0951 30.7399 16.8331 31.2066 17.6452 31.524C18.4572 31.8414 19.3272 32.0032 20.2051 32C21.5387 32.0008 22.8425 31.6256 23.9516 30.922C25.0608 30.2182 25.9254 29.2175 26.436 28.0466C26.9467 26.8756 27.0804 25.587 26.8204 24.3437C26.5603 23.1006 25.9182 21.9585 24.9751 21.0623L22.9947 22.9649C23.5389 23.4887 23.9084 24.1537 24.0563 24.8766C24.2042 25.5993 24.1241 26.3475 23.826 27.0272C23.528 27.7068 23.0252 28.2875 22.381 28.6964C21.7367 29.1053 20.9798 29.3241 20.2051 29.3252C19.6934 29.3272 19.1863 29.2324 18.7134 29.0463C18.2404 28.8602 17.8112 28.5867 17.4506 28.2414L16.523 27.3631L11.0976 22.2091L6.48798 17.8274C4.92978 16.3928 3.97944 14.4646 3.81707 12.4083C3.81707 12.226 3.81707 12.0437 3.81707 11.8615C3.8189 9.42903 4.83506 7.09649 6.64287 5.37496C8.45068 3.65342 10.9027 2.68328 13.4616 2.67714C13.65 2.67714 13.8417 2.67714 14.03 2.67714C16.4759 2.8414 18.7679 3.87268 20.452 5.5668C22.136 7.26093 23.0895 9.49439 23.1236 11.825C23.1236 11.9863 23.1236 12.1487 23.1236 12.3122C22.9846 14.4037 22.0312 16.3711 20.4492 17.8308L15.4526 22.5671L17.4435 24.4596L22.4263 19.7233C24.5036 17.7905 25.7471 15.1902 25.9131 12.4315C25.9131 12.226 25.9131 12.0172 25.9131 11.8051C25.8985 8.79327 24.6789 5.89953 22.5018 3.71125C20.3246 1.52296 17.3531 0.204078 14.1903 0.0222869Z"
        fill="#6C707A" />
</svg>